<svg width="15" height="16" viewBox="0 0 15 16" fill="none" xmlns="http://www.w3.org/2000/svg">
<path d="M7.63 8C5.41125 8 3.63 6.21875 3.63 4C3.63 1.8125 5.41125 0 7.63 0C9.8175 0 11.63 1.8125 11.63 4C11.63 6.21875 9.8175 8 7.63 8ZM10.4113 9C12.7238 9 14.63 10.9062 14.63 13.2188V14.5C14.63 15.3438 13.9425 16 13.13 16H2.13C1.28625 16 0.630005 15.3438 0.630005 14.5V13.2188C0.630005 10.9062 2.505 9 4.8175 9H5.34875C6.03625 9.34375 6.8175 9.5 7.63 9.5C8.4425 9.5 9.1925 9.34375 9.88 9H10.4113Z" fill="#EF6838"/>
</svg>
