<svg width="19" height="14" viewBox="0 0 19 14" fill="none" xmlns="http://www.w3.org/2000/svg">
<path d="M13.4399 5C13.4399 7.78125 10.5024 10 6.93994 10C5.65869 10 4.43994 9.71875 3.43994 9.21875C2.75244 9.625 1.81494 10 0.689941 10C0.564941 10 0.502441 9.96875 0.439941 9.875C0.408691 9.78125 0.439941 9.65625 0.502441 9.59375C0.502441 9.59375 1.18994 8.84375 1.62744 7.875C0.877441 7.0625 0.439941 6.09375 0.439941 5C0.439941 2.25 3.34619 0 6.93994 0C10.5024 0 13.4399 2.25 13.4399 5ZM17.2524 11.875C17.6587 12.8438 18.3462 13.5938 18.3462 13.5938C18.4399 13.6562 18.4399 13.7812 18.4087 13.875C18.3774 13.9688 18.2837 14 18.1899 14C17.0337 14 16.0962 13.625 15.4087 13.2188C14.4087 13.7188 13.2212 14 11.9399 14C9.22119 14 6.90869 12.75 5.93994 10.9688C6.25244 11 6.59619 11 6.93994 11C11.0649 11 14.4399 8.3125 14.4399 5C14.4399 4.8125 14.4087 4.59375 14.3774 4.375C16.7524 5.125 18.4399 6.9375 18.4399 9C18.4399 10.0938 17.9712 11.0625 17.2524 11.875Z" fill="#EF6838"/>
</svg>
